<svg xmlns="http://www.w3.org/2000/svg" width="256" height="256" id="behance"><path fill="none" stroke="#000" stroke-linecap="round" stroke-linejoin="round" stroke-miterlimit="10" stroke-width="4" d="M59.783 193.846c40.938 41.4 107.935 40.482 145.23.637 36.413-38.903 32.783-101.432-4.377-138.505-37.672-37.583-101.103-40.184-139.688-3.176-59.967 58.2-15.702 126.654-12.55 128.538"></path><path fill="none" stroke="#000" stroke-linecap="round" stroke-linejoin="round" stroke-miterlimit="10" stroke-width="4" d="M69 159.932c-3.375.269-5.083-72.605.833-73.833s28.917-4 43.167.5 8.962 26.908-2.333 30.333c-11.419 3.462-17.222 1.706-17.167 5.333s8 2.5 16.833 3.333c21.667.918 19.667 33.043-1.833 34.168s-28 0-28 0m79.5-26.167c10.556.167 29.917.167 31.667-2.5s1.667-22.333-20.833-23.167-28.477 13.142-28 28.833c.416 13.668 2.25 25.664 26.167 25.667s23.167-13 23.167-13m-39.335-58.333c10.111-.278 20.222.444 30.333.167"></path></svg>